<svg width="24" height="24" viewBox="0 0 24 24" fill="none" xmlns="http://www.w3.org/2000/svg">
<path d="M9.29079 16.9772C9.10454 16.7899 9 16.5364 9 16.2722C9 16.0081 9.10454 15.7546 9.29079 15.5672L12.8308 11.9772L9.29079 8.43724C9.10454 8.24988 9 7.99643 9 7.73224C9 7.46806 9.10454 7.21461 9.29079 7.02724C9.38376 6.93352 9.49436 6.85912 9.61622 6.80835C9.73807 6.75758 9.86878 6.73145 10.0008 6.73145C10.1328 6.73145 10.2635 6.75758 10.3854 6.80835C10.5072 6.85912 10.6178 6.93352 10.7108 7.02724L14.9508 11.2672C15.0445 11.3602 15.1189 11.4708 15.1697 11.5927C15.2205 11.7145 15.2466 11.8452 15.2466 11.9772C15.2466 12.1093 15.2205 12.24 15.1697 12.3618C15.1189 12.4837 15.0445 12.5943 14.9508 12.6872L10.7108 16.9772C10.6178 17.071 10.5072 17.1454 10.3854 17.1961C10.2635 17.2469 10.1328 17.273 10.0008 17.273C9.86878 17.273 9.73807 17.2469 9.61622 17.1961C9.49436 17.1454 9.38375 17.071 9.29079 16.9772Z" fill="#212329"/>
</svg>
